<?xml version="1.0" standalone="no"?>
<!DOCTYPE svg PUBLIC "-//W3C//DTD SVG 20010904//EN"
 "http://www.w3.org/TR/2001/REC-SVG-20010904/DTD/svg10.dtd">
<svg version="1.0" xmlns="http://www.w3.org/2000/svg"
 width="400.000000pt" height="456.000000pt" viewBox="0 0 400.000000 456.000000"
 preserveAspectRatio="xMidYMid meet">

<g transform="translate(0.000000,456.000000) scale(0.100000,-0.100000)"
fill="#000000" stroke="none">
<path d="M1464 4441 c-48 -22 -91 -74 -106 -127 -5 -21 -25 -53 -43 -71 l-33
-33 -131 0 -131 0 0 -180 0 -180 530 0 530 0 0 180 0 180 -127 0 c-146 0 -180
12 -202 71 -46 126 -94 171 -189 176 -41 3 -69 -2 -98 -16z"/>
<path d="M374 3959 c-41 -12 -101 -79 -109 -121 -3 -18 -4 -672 -3 -1453 l3
-1420 23 -33 c13 -18 41 -41 62 -52 38 -20 63 -20 1200 -20 980 0 1165 2 1188
14 36 19 78 65 91 99 8 20 11 466 11 1438 0 1246 -2 1414 -15 1446 -21 50 -42
72 -90 94 -35 16 -69 19 -292 19 l-253 0 0 -60 0 -60 195 0 c142 0 205 -4 228
-14 43 -17 95 -78 102 -118 3 -18 4 -616 3 -1329 l-3 -1295 -27 -41 c-52 -79
30 -73 -1143 -73 -896 0 -1050 2 -1074 15 -36 18 -79 68 -89 103 -4 15 -7 610
-7 1322 l0 1295 28 48 c47 79 73 87 310 87 l197 0 0 60 0 60 -252 -1 c-139 0
-267 -5 -284 -10z"/>
<path d="M510 3720 c-20 -20 -20 -33 -20 -1308 0 -1236 1 -1290 18 -1305 17
-16 104 -17 1040 -17 1009 0 1022 0 1042 20 20 20 20 33 20 1300 l0 1281 -25
24 -24 25 -1016 0 c-1002 0 -1015 0 -1035 -20z m1170 -166 c186 -43 348 -201
404 -393 20 -70 21 -209 1 -286 -37 -142 -157 -289 -287 -353 -372 -182 -803
83 -802 493 0 359 334 622 684 539z m710 -1274 c25 -25 25 -45 0 -70 -20 -20
-31 -20 -847 -18 l-827 3 -15 26 c-13 24 -13 29 2 53 l17 26 825 0 c812 0 825
0 845 -20z m-15 -276 c27 -11 38 -53 20 -80 l-15 -24 -827 0 c-755 0 -828 1
-845 17 -24 21 -23 48 2 73 20 20 33 20 834 20 448 0 822 -3 831 -6z m7 -296
c30 -24 31 -56 4 -83 l-26 -25 -809 0 c-797 1 -810 1 -835 21 -31 24 -33 52
-6 79 20 20 33 20 838 20 639 0 822 -3 834 -12z m3 -303 c31 -30 31 -40 0 -70
l-24 -25 -806 0 c-810 0 -835 1 -857 34 -13 19 -9 45 12 66 20 20 33 20 835
20 l816 0 24 -25z"/>
<path d="M1485 3455 c-5 -2 -35 -11 -66 -19 -179 -50 -309 -226 -309 -418 0
-60 16 -158 26 -158 1 0 32 22 67 49 35 26 87 59 116 71 28 13 51 25 51 27 0
2 -6 14 -14 26 -25 38 -36 107 -25 157 20 90 81 149 176 171 95 22 201 -33
244 -126 27 -58 25 -140 -5 -191 l-23 -41 36 -13 c52 -19 110 -56 157 -102
l41 -40 12 34 c33 93 22 238 -26 332 -33 65 -120 156 -181 189 -76 41 -227 69
-277 52z"/>
<path d="M1512 3248 c-40 -11 -72 -59 -72 -109 0 -110 159 -145 206 -46 42 88
-38 180 -134 155z"/>
<path d="M1445 2906 c-71 -18 -143 -57 -201 -109 l-49 -45 45 -47 c56 -58 88
-78 169 -105 161 -54 343 -9 460 113 l33 35 -43 44 c-106 105 -269 150 -414
114z"/>
<path d="M3292 3608 c-8 -8 -12 -55 -12 -145 l0 -133 200 0 200 0 0 129 c0
104 -3 133 -16 145 -13 13 -44 16 -188 16 -120 0 -176 -4 -184 -12z"/>
<path d="M3280 2285 l0 -935 70 0 70 0 0 935 0 935 -70 0 -70 0 0 -935z"/>
<path d="M3540 2285 l0 -935 70 0 70 0 0 935 0 935 -70 0 -70 0 0 -935z"/>
<path d="M3333 1227 c3 -8 37 -62 75 -120 l71 -107 75 115 c42 64 76 118 76
120 0 3 -68 5 -151 5 -121 0 -150 -3 -146 -13z"/>
<path d="M1990 391 c-5 -11 -10 -33 -10 -50 0 -31 0 -31 -55 -31 -55 0 -55 0
-55 31 0 24 -4 30 -17 27 -11 -2 -19 -14 -21 -31 -2 -15 -9 -27 -18 -27 -8 0
-14 -7 -14 -15 0 -8 7 -15 15 -15 12 0 15 -15 15 -73 0 -90 16 -120 63 -115
21 2 33 9 35 21 3 13 -1 18 -15 16 -35 -6 -43 10 -43 82 l0 69 55 0 55 0 0
-96 c0 -86 2 -95 18 -92 14 3 17 17 20 96 3 90 3 92 27 92 16 0 25 6 25 15 0
9 -10 15 -26 15 -23 0 -25 3 -22 33 3 28 7 32 31 32 19 -1 27 4 27 17 0 27
-75 26 -90 -1z"/>
<path d="M2342 253 c3 -141 5 -158 21 -161 16 -3 17 10 17 157 0 155 -1 161
-20 161 -20 0 -20 -5 -18 -157z"/>
<path d="M2457 394 c-16 -16 -7 -44 14 -44 15 0 20 5 17 22 -3 22 -19 33 -31
22z"/>
<path d="M1197 383 c-4 -3 -7 -71 -7 -150 0 -136 1 -143 20 -143 18 0 20 7 20
54 l0 54 46 7 c59 9 94 41 94 89 0 48 -8 65 -41 81 -28 15 -120 21 -132 8z
m123 -52 c5 -11 10 -27 10 -35 0 -26 -38 -56 -70 -56 -30 0 -30 1 -30 55 l0
55 40 0 c29 0 42 -5 50 -19z"/>
<path d="M1458 302 c-44 -23 -60 -56 -55 -116 5 -61 39 -96 93 -96 55 0 91 24
105 69 32 106 -51 189 -143 143z m86 -38 c38 -37 29 -108 -16 -133 -23 -13
-29 -13 -51 2 -44 28 -45 111 -3 139 19 13 54 9 70 -8z"/>
<path d="M1722 304 c-12 -8 -22 -10 -22 -5 0 6 -9 11 -20 11 -19 0 -20 -7 -20
-110 0 -103 1 -110 20 -110 18 0 20 7 20 73 0 60 4 77 21 96 13 14 27 20 40
16 14 -5 19 -2 19 13 0 11 -7 23 -16 26 -20 8 -16 9 -42 -10z"/>
<path d="M2140 302 c-48 -24 -68 -83 -48 -144 15 -48 43 -68 100 -68 54 0 89
33 95 93 6 52 -10 103 -37 117 -35 19 -76 19 -110 2z m94 -44 c26 -36 21 -93
-10 -117 -33 -26 -49 -26 -74 -1 -25 25 -27 95 -3 122 23 25 68 23 87 -4z"/>
<path d="M2617 309 c-39 -11 -54 -25 -67 -65 -27 -80 17 -154 90 -154 23 0 50
5 61 10 45 25 63 114 34 170 -20 38 -67 54 -118 39z m77 -51 c24 -34 20 -85
-9 -113 -29 -30 -45 -31 -74 -7 -29 22 -32 94 -6 122 25 27 70 26 89 -2z"/>
<path d="M2452 203 c3 -93 5 -108 21 -111 15 -3 17 7 17 107 0 105 -1 111 -20
111 -20 0 -21 -5 -18 -107z"/>
</g>
</svg>
