<?xml version="1.0" encoding="UTF-8"?>
<svg version="1.1" xmlns="http://www.w3.org/2000/svg" width="512" height="512">
<path d="M0 0 C1.18549643 0.04059681 2.37099286 0.08119363 3.59241343 0.12302065 C28.83000547 1.01943656 54.01671689 2.5670371 79.16015625 4.9296875 C80.04943003 5.01045143 80.93870381 5.09121536 81.85492527 5.17442667 C84.32955728 5.40360926 86.80157477 5.65092915 89.27368164 5.90576172 C89.9901796 5.97139271 90.70667756 6.03702371 91.44488758 6.10464352 C95.64735395 6.56790014 98.60958017 7.44812123 102 10 C104.90940049 14.41426281 105.31378312 17.77028126 105 23 C106.8253125 22.9071875 106.8253125 22.9071875 108.6875 22.8125 C112.62546709 22.83337262 114.92605282 23.36518813 118 26 C120.74590295 30.53983028 121.37244397 33.90362242 121.36076355 39.17538452 C121.36332682 39.87471497 121.3658901 40.57404542 121.36853105 41.2945677 C121.37345165 43.6254907 121.35700528 45.9557583 121.34057617 48.28662109 C121.33972952 49.9623615 121.34020578 51.63810302 121.34190369 53.31384277 C121.34276359 57.85476282 121.32513857 62.39544461 121.30418181 66.93630934 C121.28541426 71.68487302 121.28366451 76.43344231 121.28010559 81.18203735 C121.27078536 90.17046265 121.24617185 99.15877835 121.21605712 108.1471554 C121.18251245 118.38166719 121.16602693 128.61618425 121.15097082 138.85073733 C121.11962231 159.9005527 121.0668622 180.95026944 121 202 C121.68513672 201.97905273 122.37027344 201.95810547 123.07617188 201.93652344 C126.21729522 201.85274601 129.35818264 201.80114586 132.5 201.75 C134.11648438 201.69972656 134.11648438 201.69972656 135.765625 201.6484375 C143.76496347 201.55088459 149.06400021 202.60410309 155.27734375 207.96484375 C156.09912109 208.94130859 156.09912109 208.94130859 156.9375 209.9375 C157.50339844 210.58589844 158.06929688 211.23429688 158.65234375 211.90234375 C160.17642242 214.27460533 160.61882257 216.22560729 161 219 C161.74121094 219.10183594 162.48242188 219.20367187 163.24609375 219.30859375 C168.49140544 220.62550179 172.30977256 224.63650647 175.40234375 228.9609375 C178.11130249 233.83899132 178.05310596 237.48012508 178 243 C179.80803101 242.97643433 179.80803101 242.97643433 181.65258789 242.95239258 C186.14584612 242.89788813 190.6390754 242.86357548 195.13256836 242.83520508 C197.07337364 242.82016509 199.0141452 242.79972786 200.95483398 242.77368164 C203.75252632 242.73708705 206.54976733 242.72022552 209.34765625 242.70703125 C210.2083522 242.69154739 211.06904816 242.67606354 211.95582581 242.66011047 C218.63092519 242.65826665 222.98919648 244.10949547 228.6875 247.6875 C231.87424488 250.87424488 235 255.32832142 235 260 C235.86625 260.061875 236.7325 260.12375 237.625 260.1875 C242.41778118 261.34131769 245.3967783 263.66254923 248.13708496 267.65783691 C251.25505545 273.37832673 251.58544636 278.34428679 251.53125 284.78125 C251.5350769 285.79417114 251.53890381 286.80709229 251.54284668 287.85070801 C251.54555609 289.98202515 251.53826335 292.11337609 251.52148438 294.24462891 C251.50006158 297.49066927 251.52132003 300.73449651 251.546875 303.98046875 C251.54423155 306.05990068 251.53910623 308.13933123 251.53125 310.21875 C251.53934692 311.18043091 251.54744385 312.14211182 251.55578613 313.13293457 C251.47133142 319.25873462 250.64747102 323.97907323 247 329 C245.82226387 329.90280914 244.62158218 330.77630526 243.40216064 331.6219635 C240.46811252 334.08781468 239.49137034 335.64335233 239.14044189 339.47080994 C239.11172821 341.23023781 239.12111603 342.99054878 239.16113281 344.74975586 C239.15219749 346.19723961 239.15219749 346.19723961 239.14308167 347.67396545 C239.13099719 350.85513639 239.16744241 354.03388164 239.203125 357.21484375 C239.20135696 359.4315291 239.19607665 361.64821419 239.18743896 363.86488342 C239.17218345 369.69696922 239.19602856 375.52818926 239.23065186 381.36016846 C239.28111547 390.69052451 239.27947137 400.02084157 239.26424408 409.35128975 C239.26560555 412.60585463 239.28794102 415.85978299 239.31280518 419.11424255 C239.3162504 421.11644394 239.31910946 423.11864645 239.32128906 425.12084961 C239.33993767 426.47157059 239.33993767 426.47157059 239.35896301 427.84957886 C239.3350023 436.18297581 237.03727501 441.96272499 231 448 C225.98835737 450.57303221 222.32339196 451.37567709 216.61174679 451.38031673 C215.54118493 451.38730661 215.54118493 451.38730661 214.44899556 451.3944377 C212.06305224 451.40636635 209.67768063 451.39700082 207.29173279 451.38768005 C205.56167269 451.39185389 203.83161532 451.39733168 202.10156304 451.40399987 C197.35164817 451.41846626 192.60190664 451.41420603 187.85198224 451.40683305 C182.7278633 451.40210674 177.60378215 451.41460637 172.47967529 451.42485046 C162.44346957 451.44205339 152.40732642 451.4428755 142.37110978 451.43763756 C134.21580991 451.43359799 126.06052855 451.43503688 117.90522957 451.44038582 C116.16493618 451.44150845 116.16493618 451.44150845 114.38948535 451.44265376 C112.03266747 451.44418522 109.67584959 451.44572356 107.31903172 451.44726873 C85.2143393 451.46099877 63.10968226 451.45555217 41.00499064 451.44408352 C20.77245935 451.43414703 0.54001946 451.44709813 -19.69249774 451.47101771 C-40.46012574 451.49538529 -61.22771114 451.50502257 -81.99535316 451.49836498 C-93.65775742 451.49486802 -105.32009134 451.49713649 -116.98248482 451.51461601 C-126.90860619 451.52930857 -136.83460769 451.5300119 -146.76072664 451.5125451 C-151.82678532 451.50400908 -156.89262957 451.50194895 -161.95867729 451.51719666 C-166.59416233 451.53097604 -171.22924785 451.52636804 -175.86470937 451.50695742 C-177.54359862 451.50317633 -179.22251936 451.50617967 -180.90138073 451.51656907 C-183.18060079 451.52967328 -185.45842846 451.51821616 -187.73758793 451.50057125 C-189.00433765 451.50046391 -190.27108736 451.50035658 -191.57622343 451.50024599 C-196.17418177 450.82844099 -199.48655508 448.92620263 -202.375 445.25 C-203.33315962 441.80062538 -203.11908512 438.57255374 -203 435 C-204.19625 435.0825 -205.3925 435.165 -206.625 435.25 C-211.10407241 435.25 -213.56159946 433.94720046 -217 431 C-219.41993324 427.42382323 -219.25392334 424.12583055 -219.26069641 419.88876343 C-219.26452196 419.1721352 -219.26834751 418.45550697 -219.27228898 417.71716273 C-219.28260834 415.31576175 -219.27862896 412.91460034 -219.2746582 410.51318359 C-219.27900515 408.79172036 -219.28418824 407.07025907 -219.29014587 405.34880066 C-219.30354584 400.67341074 -219.30411367 395.9981016 -219.30158257 391.32269621 C-219.30051401 387.42319734 -219.30539305 383.52371489 -219.310188 379.62421954 C-219.32128563 370.42948025 -219.32171848 361.23478181 -219.31567383 352.04003906 C-219.30962631 342.54235518 -219.32196418 333.04481916 -219.3432439 323.54716051 C-219.36082872 315.40018497 -219.36686639 307.25325663 -219.36360615 299.1062628 C-219.3617889 294.23696283 -219.36447374 289.36776842 -219.37832069 284.49848557 C-219.39084458 279.92334336 -219.38900693 275.34843287 -219.37590981 270.77329445 C-219.37353292 269.09062054 -219.37631818 267.40793058 -219.38453293 265.72527504 C-219.39490844 263.43566629 -219.38697529 261.14684854 -219.3742218 258.85726929 C-219.37438954 257.57379797 -219.37455729 256.29032665 -219.37473011 254.96796227 C-219.25106917 253.98853472 -219.12740824 253.00910717 -219 252 C-217.515 251.01 -217.515 251.01 -216 250 C-215.42006301 247.80545319 -215.42006301 247.80545319 -215.3125 245.375 C-215.24675781 244.55773437 -215.18101562 243.74046875 -215.11328125 242.8984375 C-215.07589844 242.27195312 -215.03851563 241.64546875 -215 241 C-216.32 240.67 -217.64 240.34 -219 240 C-219.02529951 233.77035385 -219.04284549 227.54072088 -219.05493164 221.31103516 C-219.05996872 219.19058741 -219.06679859 217.07014315 -219.07543945 214.94970703 C-219.08753234 211.90656678 -219.09323447 208.86347234 -219.09765625 205.8203125 C-219.10281754 204.86818878 -219.10797882 203.91606506 -219.11329651 202.93508911 C-219.11337204 202.05432709 -219.11344757 201.17356506 -219.11352539 200.26611328 C-219.115746 199.48889923 -219.11796661 198.71168518 -219.12025452 197.91091919 C-219 196 -219 196 -218 194 C-217.01 194 -216.02 194 -215 194 C-215 191.03 -215 188.06 -215 185 C-216.32 184.34 -217.64 183.68 -219 183 C-223.75604917 146.46118786 -224.06117164 114.19053381 -201.07193041 83.81406927 C-194.30283303 75.06623784 -186.83925198 67.02250721 -179.14514923 59.08948517 C-177.42683839 57.3014055 -175.73513733 55.49145163 -174.0491333 53.6729126 C-124.8398391 0.76796193 -69.31402349 -2.38685266 0 0 Z " fill="#FDD5E3" transform="translate(240,27)"/>
<path d="M0 0 C1.18549643 0.04059681 2.37099286 0.08119363 3.59241343 0.12302065 C28.83000547 1.01943656 54.01671689 2.5670371 79.16015625 4.9296875 C80.04943003 5.01045143 80.93870381 5.09121536 81.85492527 5.17442667 C84.32955728 5.40360926 86.80157477 5.65092915 89.27368164 5.90576172 C89.9901796 5.97139271 90.70667756 6.03702371 91.44488758 6.10464352 C95.64735395 6.56790014 98.60958017 7.44812123 102 10 C104.90940049 14.41426281 105.31378312 17.77028126 105 23 C106.8253125 22.9071875 106.8253125 22.9071875 108.6875 22.8125 C112.62546709 22.83337262 114.92605282 23.36518813 118 26 C120.74590295 30.53983028 121.37244397 33.90362242 121.36076355 39.17538452 C121.36332682 39.87471497 121.3658901 40.57404542 121.36853105 41.2945677 C121.37345165 43.6254907 121.35700528 45.9557583 121.34057617 48.28662109 C121.33972952 49.9623615 121.34020578 51.63810302 121.34190369 53.31384277 C121.34276359 57.85476282 121.32513857 62.39544461 121.30418181 66.93630934 C121.28541426 71.68487302 121.28366451 76.43344231 121.28010559 81.18203735 C121.27078536 90.17046265 121.24617185 99.15877835 121.21605712 108.1471554 C121.18251245 118.38166719 121.16602693 128.61618425 121.15097082 138.85073733 C121.11962231 159.9005527 121.0668622 180.95026944 121 202 C121.68513672 201.97905273 122.37027344 201.95810547 123.07617188 201.93652344 C126.21729522 201.85274601 129.35818264 201.80114586 132.5 201.75 C134.11648438 201.69972656 134.11648438 201.69972656 135.765625 201.6484375 C143.76496347 201.55088459 149.06400021 202.60410309 155.27734375 207.96484375 C156.09912109 208.94130859 156.09912109 208.94130859 156.9375 209.9375 C157.50339844 210.58589844 158.06929688 211.23429688 158.65234375 211.90234375 C160.17642242 214.27460533 160.61882257 216.22560729 161 219 C161.74121094 219.10183594 162.48242188 219.20367187 163.24609375 219.30859375 C168.49140544 220.62550179 172.30977256 224.63650647 175.40234375 228.9609375 C178.11130249 233.83899132 178.05310596 237.48012508 178 243 C179.80803101 242.97643433 179.80803101 242.97643433 181.65258789 242.95239258 C186.14584612 242.89788813 190.6390754 242.86357548 195.13256836 242.83520508 C197.07337364 242.82016509 199.0141452 242.79972786 200.95483398 242.77368164 C203.75252632 242.73708705 206.54976733 242.72022552 209.34765625 242.70703125 C210.2083522 242.69154739 211.06904816 242.67606354 211.95582581 242.66011047 C218.63092519 242.65826665 222.98919648 244.10949547 228.6875 247.6875 C231.87424488 250.87424488 235 255.32832142 235 260 C235.86625 260.061875 236.7325 260.12375 237.625 260.1875 C242.41778118 261.34131769 245.3967783 263.66254923 248.13708496 267.65783691 C251.25505545 273.37832673 251.58544636 278.34428679 251.53125 284.78125 C251.5350769 285.79417114 251.53890381 286.80709229 251.54284668 287.85070801 C251.54555609 289.98202515 251.53826335 292.11337609 251.52148438 294.24462891 C251.50006158 297.49066927 251.52132003 300.73449651 251.546875 303.98046875 C251.54423155 306.05990068 251.53910623 308.13933123 251.53125 310.21875 C251.53934692 311.18043091 251.54744385 312.14211182 251.55578613 313.13293457 C251.47133142 319.25873462 250.64747102 323.97907323 247 329 C245.82226387 329.90280914 244.62158218 330.77630526 243.40216064 331.6219635 C240.46811252 334.08781468 239.49137034 335.64335233 239.14044189 339.47080994 C239.11172821 341.23023781 239.12111603 342.99054878 239.16113281 344.74975586 C239.15219749 346.19723961 239.15219749 346.19723961 239.14308167 347.67396545 C239.13099719 350.85513639 239.16744241 354.03388164 239.203125 357.21484375 C239.20135696 359.4315291 239.19607665 361.64821419 239.18743896 363.86488342 C239.17218345 369.69696922 239.19602856 375.52818926 239.23065186 381.36016846 C239.28111547 390.69052451 239.27947137 400.02084157 239.26424408 409.35128975 C239.26560555 412.60585463 239.28794102 415.85978299 239.31280518 419.11424255 C239.3162504 421.11644394 239.31910946 423.11864645 239.32128906 425.12084961 C239.33993767 426.47157059 239.33993767 426.47157059 239.35896301 427.84957886 C239.3350023 436.18297581 237.03727501 441.96272499 231 448 C225.98835737 450.57303221 222.32339196 451.37567709 216.61174679 451.38031673 C215.54118493 451.38730661 215.54118493 451.38730661 214.44899556 451.3944377 C212.06305224 451.40636635 209.67768063 451.39700082 207.29173279 451.38768005 C205.56167269 451.39185389 203.83161532 451.39733168 202.10156304 451.40399987 C197.35164817 451.41846626 192.60190664 451.41420603 187.85198224 451.40683305 C182.7278633 451.40210674 177.60378215 451.41460637 172.47967529 451.42485046 C162.44346957 451.44205339 152.40732642 451.4428755 142.37110978 451.43763756 C134.21580991 451.43359799 126.06052855 451.43503688 117.90522957 451.44038582 C116.16493618 451.44150845 116.16493618 451.44150845 114.38948535 451.44265376 C112.03266747 451.44418522 109.67584959 451.44572356 107.31903172 451.44726873 C85.2143393 451.46099877 63.10968226 451.45555217 41.00499064 451.44408352 C20.77245935 451.43414703 0.54001946 451.44709813 -19.69249774 451.47101771 C-40.46012574 451.49538529 -61.22771114 451.50502257 -81.99535316 451.49836498 C-93.65775742 451.49486802 -105.32009134 451.49713649 -116.98248482 451.51461601 C-126.90860619 451.52930857 -136.83460769 451.5300119 -146.76072664 451.5125451 C-151.82678532 451.50400908 -156.89262957 451.50194895 -161.95867729 451.51719666 C-166.59416233 451.53097604 -171.22924785 451.52636804 -175.86470937 451.50695742 C-177.54359862 451.50317633 -179.22251936 451.50617967 -180.90138073 451.51656907 C-183.18060079 451.52967328 -185.45842846 451.51821616 -187.73758793 451.50057125 C-189.00433765 451.50046391 -190.27108736 451.50035658 -191.57622343 451.50024599 C-196.17418177 450.82844099 -199.48655508 448.92620263 -202.375 445.25 C-203.33315962 441.80062538 -203.11908512 438.57255374 -203 435 C-204.19625 435.0825 -205.3925 435.165 -206.625 435.25 C-211.10407241 435.25 -213.56159946 433.94720046 -217 431 C-219.42733384 427.41860243 -219.24658932 424.11934623 -219.24050903 419.87530518 C-219.24221788 419.15726581 -219.24392673 418.43922645 -219.24568737 417.69942832 C-219.24898171 415.29333247 -219.2379796 412.88751547 -219.22705078 410.48144531 C-219.22648665 408.75673937 -219.22680325 407.03203294 -219.22793579 405.30732727 C-219.22851025 400.62378722 -219.21674085 395.94034935 -219.20278788 391.25683308 C-219.19029605 386.36277597 -219.18911124 381.46871659 -219.18673706 376.574646 C-219.18051774 367.30639794 -219.1641008 358.038197 -219.14403808 348.7699697 C-219.12169315 338.21869372 -219.11068919 327.66741551 -219.10064721 317.11612177 C-219.07973498 295.41072154 -219.0445502 273.70536374 -219 252 C-217.25 250.875 -217.25 250.875 -215 250 C-213.68 250.66 -212.36 251.32 -211 252 C-210.67 309.42 -210.34 366.84 -210 426 C-146.64 426 -83.28 426 -18 426 C-18.99 423.69 -19.98 421.38 -21 419 C-21.36914349 416.56131077 -21.36914349 416.56131077 -21.36076355 414.3238678 C-21.36694954 413.03468948 -21.36694954 413.03468948 -21.3732605 411.71946716 C-21.36247467 410.8002095 -21.35168884 409.88095184 -21.34057617 408.93383789 C-21.34101425 407.94770508 -21.34145233 406.96157227 -21.34190369 405.94555664 C-21.33982309 402.70438448 -21.3165261 399.46373742 -21.29296875 396.22265625 C-21.28737021 393.96821882 -21.28310133 391.71377772 -21.28010559 389.45933533 C-21.26867718 383.53931518 -21.23922703 377.6195175 -21.20599365 371.69958496 C-21.17524968 365.65326954 -21.161591 359.60691801 -21.14648438 353.56054688 C-21.11435558 341.70693377 -21.06318331 329.85348542 -21 318 C-21.78858398 317.70416016 -22.57716797 317.40832031 -23.38964844 317.10351562 C-26.19887663 315.9159257 -27.35998855 314.84759318 -29.25 312.5 C-29.75015625 311.8915625 -30.2503125 311.283125 -30.765625 310.65625 C-32.92170533 307.76328146 -33.142804 305.88366147 -33.20874023 302.32592773 C-33.22803085 301.35409042 -33.24732147 300.38225311 -33.26719666 299.38096619 C-33.32502609 294.91441542 -33.37426218 290.44802708 -33.4050293 285.98120117 C-33.42656297 283.63111637 -33.46061007 281.28111076 -33.50756836 278.93139648 C-33.5748029 275.53593254 -33.60207285 272.14213091 -33.62109375 268.74609375 C-33.64892441 267.70513046 -33.67675507 266.66416718 -33.70542908 265.59165955 C-33.68484591 258.21821451 -32.06274995 253.44443786 -27 248 C-20.75219325 242.73517071 -14.07341595 243.48187716 -6.19140625 243.609375 C-4.85620475 243.61684662 -3.5209922 243.6225352 -2.18577576 243.62652588 C1.30792157 243.64171021 4.80094089 243.68092741 8.29437256 243.7253418 C11.86737906 243.76645177 15.44049642 243.78457022 19.01367188 243.8046875 C26.00939097 243.84743058 33.00466282 243.91559257 40 244 C39.97381592 243.25427734 39.94763184 242.50855469 39.9206543 241.74023438 C39.81604449 238.32704142 39.75147031 234.91418672 39.6875 231.5 C39.64560547 230.32695312 39.60371094 229.15390625 39.56054688 227.9453125 C39.43779042 219.20505283 41.00982956 214.37904298 46.84375 207.9765625 C47.3903125 207.53054687 47.936875 207.08453125 48.5 206.625 C49.0465625 206.16351563 49.593125 205.70203125 50.15625 205.2265625 C55.33947968 201.77839699 59.99673936 201.72953595 66.01953125 201.8046875 C66.87810226 201.8075174 67.73667328 201.81034729 68.6212616 201.81326294 C71.35181875 201.8244193 74.0820427 201.84951541 76.8125 201.875 C78.66861504 201.88503568 80.52473524 201.8941605 82.38085938 201.90234375 C86.92070046 201.92434374 91.46029381 201.95884219 96 202 C95.89290954 177.89623584 95.78017526 153.79250386 95.66066074 129.68879795 C95.60530485 118.49786502 95.55181903 107.30692891 95.50268555 96.1159668 C95.45987263 86.36568617 95.41360206 76.61542925 95.36312145 66.8651852 C95.33649713 61.69912292 95.31164356 56.53306541 95.29092598 51.36697578 C95.27139518 46.51041362 95.24726229 41.65389666 95.21950912 36.79737473 C95.21011977 35.00947703 95.20245133 33.2215694 95.19658089 31.43365669 C95.18835156 29.00357765 95.17408417 26.5736093 95.15821838 24.14356995 C95.15675122 23.06820106 95.15675122 23.06820106 95.15525442 21.97110754 C95.40591184 18.70406037 95.40591184 18.70406037 94 16 C91.45841912 15.88985463 88.94342596 15.84503841 86.40086365 15.84178162 C85.19289229 15.83437465 85.19289229 15.83437465 83.96051747 15.82681805 C81.24117725 15.81136546 78.52186078 15.80306155 75.80249023 15.79467773 C73.86147856 15.7851053 71.920469 15.7750956 69.97946167 15.76467896 C64.69251288 15.73755503 59.40555508 15.71658615 54.11857486 15.69667697 C48.5998715 15.67486343 43.08119609 15.64745216 37.56251526 15.62062073 C27.10422869 15.570631 16.64592665 15.52571555 6.18760973 15.48259836 C-5.71547026 15.43327954 -17.6185222 15.37834162 -29.52157509 15.32291877 C-54.01435725 15.20900236 -78.50716629 15.10218446 -103 15 C-102.99000725 16.82164169 -102.99000725 16.82164169 -102.97981262 18.68008423 C-102.91898605 30.12734774 -102.87401985 41.57457845 -102.84456348 53.02196693 C-102.82891057 58.90712853 -102.80767883 64.79215961 -102.77368164 70.67724609 C-102.7410753 76.35714373 -102.72314417 82.03691586 -102.71536827 87.71689987 C-102.70982709 89.88342642 -102.69900655 92.04994613 -102.68280983 94.21641922 C-102.66101895 97.25201489 -102.65803381 100.28709255 -102.65942383 103.32275391 C-102.648638 104.21755463 -102.63785217 105.11235535 -102.6267395 106.03427124 C-102.65612388 111.96840827 -103.61066775 116.19612816 -107.57965088 120.85371399 C-111.51164838 122.71592208 -115.43265125 122.39036186 -119.72558594 122.34057617 C-121.20412804 122.34123329 -121.20412804 122.34123329 -122.71253967 122.34190369 C-125.97001972 122.33981397 -129.22698487 122.3164738 -132.484375 122.29296875 C-134.74310017 122.28737346 -137.00182897 122.28310305 -139.26055908 122.28010559 C-145.20528212 122.2686516 -151.14978524 122.23917941 -157.09442139 122.20599365 C-163.16057358 122.17530486 -169.2267613 122.16160278 -175.29296875 122.14648438 C-187.19540912 122.11431045 -199.09768627 122.0631072 -211 122 C-210.99555878 122.75977142 -210.99111755 123.51954285 -210.98654175 124.30233765 C-210.94650906 131.45375317 -210.91603811 138.60511455 -210.89637566 145.75661278 C-210.88592726 149.4334935 -210.87174898 153.11028183 -210.84912109 156.78710938 C-210.82743009 160.33379655 -210.81543933 163.88039472 -210.81024551 167.4271431 C-210.806543 168.78197252 -210.79931311 170.13679694 -210.78853989 171.49158859 C-210.77407552 173.38545757 -210.77318351 175.27941564 -210.77294922 177.17333984 C-210.768508 178.25255707 -210.76406677 179.33177429 -210.75949097 180.44369507 C-211 183 -211 183 -213 185 C-217.55555556 184.44444444 -217.55555556 184.44444444 -219 183 C-224.53344281 151.60748519 -224.68026852 118.09124393 -206.34047806 91.023085 C-198.25820605 79.499879 -188.92802248 69.17613876 -179.14514923 59.08948517 C-177.42683839 57.3014055 -175.73513733 55.49145163 -174.0491333 53.6729126 C-124.8398391 0.76796193 -69.31402349 -2.38685266 0 0 Z " fill="#3D3063" transform="translate(240,27)"/>
<path d="M0 0 C3.20708688 -0.23389694 6.41197595 -0.37487528 9.625 -0.5 C10.52863281 -0.56703125 11.43226563 -0.6340625 12.36328125 -0.703125 C19.03235869 -0.89784259 19.03235869 -0.89784259 21.88183594 1.74609375 C23.4609375 3.90625 23.4609375 3.90625 24.75927734 6.07226562 C26.00731408 8.293369 26.00731408 8.293369 29 10 C33.23154371 10.40989312 37.46419359 10.37160345 41.71411133 10.37060547 C43.79527537 10.37496393 45.87429135 10.41124729 47.95507812 10.44921875 C49.2890553 10.45509049 50.62304248 10.45905749 51.95703125 10.4609375 C53.16335205 10.46915527 54.36967285 10.47737305 55.61254883 10.48583984 C59.76701499 9.88999208 61.8167652 8.71846498 65 6 C65.99 4.02 66.98 2.04 68 0 C98.03 0 128.06 0 159 0 C160.98 3.465 160.98 3.465 163 7 C166.84355851 10.16818575 169.97550625 10.38460828 174.875 10.3984375 C176.18984375 10.40230469 177.5046875 10.40617187 178.859375 10.41015625 C179.53935547 10.40387207 180.21933594 10.39758789 180.91992188 10.39111328 C182.99415892 10.37504525 185.06644796 10.39098732 187.140625 10.41015625 C189.11289062 10.40435547 189.11289062 10.40435547 191.125 10.3984375 C192.32382812 10.39505371 193.52265625 10.39166992 194.7578125 10.38818359 C198.43748281 9.94762066 200.14391864 9.35422363 203 7 C204.32 4.69 205.64 2.38 207 0 C213.6 0 220.2 0 227 0 C227.06775845 12.82163695 227.12280625 25.64315511 227.15543652 38.46493053 C227.17109685 44.41850114 227.19234211 50.37194297 227.22631836 56.32543945 C227.25889828 62.07017089 227.27685025 67.81477841 227.28463173 73.55959511 C227.29017766 75.7520677 227.3010074 77.94453347 227.31719017 80.13695335 C227.33894594 83.20627918 227.34196766 86.27509198 227.34057617 89.34448242 C227.351362 90.25222916 227.36214783 91.15997589 227.3732605 92.0952301 C227.34989688 96.85336262 227.2371177 100.23369908 224 104 C219.68203349 107.33761611 215.69350951 107.43161029 210.43545532 107.40113831 C209.57449261 107.40793498 208.7135299 107.41473164 207.82647741 107.42173427 C204.94230089 107.44072074 202.0585485 107.43826851 199.17431641 107.43579102 C197.10613966 107.4447676 195.03796795 107.45497562 192.96980286 107.46632385 C187.35201265 107.49283734 181.7343595 107.49985787 176.11651278 107.50177121 C171.42709255 107.50461964 166.73770426 107.51565578 162.04829633 107.5262875 C150.98498058 107.55071836 139.92173807 107.55804043 128.85839844 107.5559082 C117.44468368 107.55410553 106.03139414 107.58576777 94.617787 107.63313919 C84.8189114 107.67235999 75.02017483 107.68846015 65.22122133 107.68654197 C59.3685368 107.68577688 53.51623018 107.69433814 47.66362381 107.72607613 C42.15917521 107.75511108 36.65546604 107.75536365 31.15099144 107.73352623 C29.13176965 107.73038764 27.11250189 107.73748405 25.09335899 107.7556076 C22.33420707 107.7787678 19.57760892 107.76484284 16.81851196 107.74171448 C16.02132236 107.75714517 15.22413276 107.77257586 14.4027859 107.78847414 C9.03222531 107.68913205 6.25563956 106.2121075 2.31888044 102.57939285 C0.05888843 99.87299497 -0.1245805 97.29737003 -0.12025452 93.91877747 C-0.12162918 93.09006638 -0.12300385 92.26135529 -0.12442017 91.40753174 C-0.12082489 90.50194519 -0.11722961 89.59635864 -0.11352539 88.66333008 C-0.11367142 87.70704208 -0.11381744 86.75075409 -0.1139679 85.76548767 C-0.11327044 82.6001459 -0.1054858 79.43486276 -0.09765625 76.26953125 C-0.09579148 74.07663505 -0.09436785 71.88373844 -0.09336853 69.69084167 C-0.08954802 63.91552584 -0.07972168 58.14023511 -0.06866455 52.3649292 C-0.05844044 46.47310729 -0.05386876 40.58128134 -0.04882812 34.68945312 C-0.03809902 23.12629105 -0.02102815 11.56314761 0 0 Z " fill="#0088EE" transform="translate(227,347)"/>
<path d="M0 0 C1.4468577 -0.00763173 1.4468577 -0.00763173 2.92294484 -0.01541764 C6.17562324 -0.03119331 9.42827934 -0.03968065 12.6809845 -0.04811096 C15.00486901 -0.05764528 17.32875208 -0.06753625 19.65263367 -0.07775879 C27.30244757 -0.10919208 34.95227251 -0.12941568 42.60212708 -0.14796448 C43.90241545 -0.1512618 45.20270382 -0.15455912 46.54239488 -0.15795636 C58.79946155 -0.18873873 71.05653006 -0.21561567 83.31362438 -0.23237514 C86.153363 -0.23632468 88.99310153 -0.24032767 91.83283997 -0.24440002 C92.53864849 -0.24540839 93.24445702 -0.24641675 93.97165368 -0.24745566 C105.40295706 -0.26445917 116.83404382 -0.30556375 128.26524147 -0.35642301 C140.00051672 -0.40820573 151.73568061 -0.4373183 163.47106916 -0.44457203 C170.06045919 -0.44953418 176.64946441 -0.46466942 183.23874474 -0.50431633 C189.43828514 -0.54112577 195.63722002 -0.54961057 201.83684921 -0.5363102 C204.11247871 -0.53636424 206.38813465 -0.54669846 208.66366386 -0.56806183 C211.77097585 -0.59567489 214.87606914 -0.58626417 217.98339844 -0.56762695 C219.33399936 -0.59281935 219.33399936 -0.59281935 220.71188515 -0.61852068 C226.38342865 -0.53352222 229.37643752 0.68771264 233.52568895 4.58076328 C235.73080534 7.29511585 235.94031539 9.90202569 235.98616028 13.26145935 C236.00541313 14.49337761 236.00541313 14.49337761 236.02505493 15.75018311 C236.03244186 16.63457565 236.0398288 17.5189682 236.04743958 18.43016052 C236.05551132 19.34391953 236.06358307 20.25767853 236.07189941 21.1991272 C236.08572839 23.1332968 236.09645585 25.06749069 236.10432434 27.00169373 C236.12153291 29.9516297 236.16542884 32.90044348 236.20954895 35.8500824 C236.21967673 37.73093355 236.22819256 39.61179421 236.23493958 41.49266052 C236.25244766 42.37098038 236.26995575 43.24930023 236.28799438 44.15423584 C236.26868999 49.63585386 235.58433719 52.89435056 231.80915833 57.16062927 C226.52582397 61.21011177 221.21542059 60.74740575 214.80915833 60.78562927 C213.72892395 60.83074646 212.64868958 60.87586365 211.53572083 60.92234802 C203.74127677 60.98970742 203.74127677 60.98970742 201.08650208 58.62840271 C199.80915833 56.74656677 199.80915833 56.74656677 198.87165833 54.86521912 C197.43864634 52.56620955 196.37218905 52.04392906 193.80915833 51.16062927 C189.39193664 50.76213835 184.97023851 50.78901463 180.53742981 50.7900238 C178.38175992 50.78564977 176.22813828 50.74930497 174.0728302 50.71141052 C172.69458195 50.70554167 171.31632404 50.70157273 169.93806458 50.69969177 C168.69097717 50.691474 167.44388977 50.68325623 166.15901184 50.67478943 C162.15153459 51.25600652 160.6250486 52.29230327 157.80915833 55.16062927 C157.44592468 56.0190593 157.08269104 56.87748932 156.70845032 57.76193237 C154.80915833 60.16062927 154.80915833 60.16062927 151.02059937 60.80227661 C149.40689908 60.83510748 147.79249247 60.8400202 146.17854309 60.82347107 C145.29695526 60.83383896 144.41536743 60.84420685 143.50706482 60.85488892 C140.5877602 60.88203211 137.66995029 60.87228164 134.75056458 60.85984802 C132.72418802 60.86575401 130.69781496 60.87299949 128.67144775 60.88153076 C124.42183778 60.89342463 120.17275108 60.88668137 115.923172 60.86741638 C110.47388575 60.84453816 105.02615959 60.87129025 99.57702732 60.91247845 C95.39138158 60.93804067 91.20610982 60.9354807 87.02041435 60.92458534 C85.01133242 60.92309687 83.00222208 60.93080917 80.99321175 60.94783592 C78.18423224 60.96777507 75.37801944 60.94945184 72.56916809 60.92112732 C71.73734512 60.93484375 70.90552216 60.94856018 70.04849243 60.96269226 C67.72470093 60.915802 67.72470093 60.915802 63.80915833 60.16062927 C61.40681458 57.22859192 61.40681458 57.22859192 59.80915833 54.16062927 C54.44474739 49.89244612 48.5088491 50.67323817 41.94416809 50.71458435 C39.88057083 50.72309253 37.81974807 50.69431071 35.75642395 50.6625824 C34.44480286 50.66322693 33.13318176 50.66387146 31.78181458 50.66453552 C30.58822327 50.6626825 29.39463196 50.66082947 28.16487122 50.65892029 C24.07058111 51.27105315 21.95483278 52.49187505 18.80915833 55.16062927 C17.39725268 57.7650016 17.39725268 57.7650016 16.80915833 60.16062927 C12.60119146 60.3063345 8.39387666 60.39484014 4.18415833 60.47312927 C2.99435364 60.5150238 1.80454895 60.55691833 0.57868958 60.6000824 C-9.31215681 60.73822271 -9.31215681 60.73822271 -12.96427917 57.76609802 C-15.77295221 54.47945782 -16.31569854 53.00874557 -16.38371277 48.80613708 C-16.3997757 47.90469971 -16.41583862 47.00326233 -16.43238831 46.07450867 C-16.47686784 41.94501998 -16.51791373 37.81569224 -16.54093933 33.6860199 C-16.55748727 31.50947875 -16.58476178 29.33299168 -16.62297058 27.15672302 C-16.67780884 24.01711356 -16.69962552 20.87877854 -16.71427917 17.73875427 C-16.73694855 16.76980225 -16.75961792 15.80085022 -16.78297424 14.80253601 C-16.76892525 10.29683171 -16.68420772 7.15155295 -13.78312683 3.56199646 C-9.39292257 -0.50487575 -5.73544218 0.00742371 0 0 Z " fill="#6CC8F6" transform="translate(231.1908416748047,278.83937072753906)"/>
<path d="M0 0 C13.56305902 10.49475892 23.48346055 25.86656056 26 43 C27.42472947 61.22466445 23.14357608 77.57750388 12 92 C11.48824219 92.68964844 10.97648437 93.37929688 10.44921875 94.08984375 C0.88499495 106.0747892 -14.81333793 114.20183667 -30 116 C-48.47212573 116.96634863 -65.64514029 113.33257826 -80.03686523 101.01757812 C-92.35590458 89.77293091 -101.00957427 74.70530406 -102.14404297 57.86132812 C-102.58949754 47.25350849 -102.15329281 37.94066805 -98 28 C-97.63777344 27.12085938 -97.27554688 26.24171875 -96.90234375 25.3359375 C-88.68464906 7.34057896 -73.83286646 -2.84374066 -56.1953125 -10.1640625 C-37.49192799 -16.398524 -15.65434877 -11.21067916 0 0 Z " fill="#3D2F63" transform="translate(163,225)"/>
<path d="M0 0 C5.24146768 0.69350895 8.47340392 2.00485927 12 6 C16.13217482 12.02459111 16.59142527 17.63416438 16.53125 24.78125 C16.5350769 25.79417114 16.53890381 26.80709229 16.54284668 27.85070801 C16.54555609 29.98202515 16.53826335 32.11337609 16.52148438 34.24462891 C16.50006158 37.49066927 16.52132003 40.73449651 16.546875 43.98046875 C16.54423155 46.05990068 16.53910623 48.13933123 16.53125 50.21875 C16.53934692 51.18043091 16.54744385 52.14211182 16.55578613 53.13293457 C16.47133142 59.25873462 15.64747102 63.97907323 12 69 C10.82226387 69.90280914 9.62158218 70.77630526 8.40216064 71.6219635 C5.46811252 74.08781468 4.49137034 75.64335233 4.14044189 79.47080994 C4.11172821 81.23023781 4.12111603 82.99054878 4.16113281 84.74975586 C4.15219749 86.19723961 4.15219749 86.19723961 4.14308167 87.67396545 C4.13099719 90.85513639 4.16744241 94.03388164 4.203125 97.21484375 C4.20135696 99.4315291 4.19607665 101.64821419 4.18743896 103.86488342 C4.17218345 109.69696922 4.19602856 115.52818926 4.23065186 121.36016846 C4.28111547 130.69052451 4.27947137 140.02084157 4.26424408 149.35128975 C4.26560555 152.60585463 4.28794102 155.85978299 4.31280518 159.11424255 C4.3162504 161.11644394 4.31910946 163.11864645 4.32128906 165.12084961 C4.33993767 166.47157059 4.33993767 166.47157059 4.35896301 167.84957886 C4.3350023 176.18297581 2.03727501 181.96272499 -4 188 C-9.01164263 190.57303221 -12.67660804 191.37567709 -18.38825321 191.38031673 C-19.45881507 191.38730661 -19.45881507 191.38730661 -20.55100444 191.3944377 C-22.93694776 191.40636635 -25.32231937 191.39700082 -27.70826721 191.38768005 C-29.43832731 191.39185389 -31.16838468 191.39733168 -32.89843696 191.40399987 C-37.64835183 191.41846626 -42.39809336 191.41420603 -47.14801776 191.40683305 C-52.2721367 191.40210674 -57.39621785 191.41460637 -62.52032471 191.42485046 C-72.55653043 191.44205339 -82.59267358 191.4428755 -92.62889022 191.43763756 C-100.78419009 191.43359799 -108.93947145 191.43503688 -117.09477043 191.44038582 C-118.83506382 191.44150845 -118.83506382 191.44150845 -120.61051465 191.44265376 C-122.96733253 191.44418522 -125.32415041 191.44572356 -127.68096828 191.44726873 C-149.7856607 191.46099877 -171.89031774 191.45555217 -193.99500936 191.44408352 C-214.22754065 191.43414703 -234.45998054 191.44709813 -254.69249774 191.47101771 C-275.46012574 191.49538529 -296.22771114 191.50502257 -316.99535316 191.49836498 C-328.65775742 191.49486802 -340.32009134 191.49713649 -351.98248482 191.51461601 C-361.90860619 191.52930857 -371.83460769 191.5300119 -381.76072664 191.5125451 C-386.82678532 191.50400908 -391.89262957 191.50194895 -396.95867729 191.51719666 C-401.59416233 191.53097604 -406.22924785 191.52636804 -410.86470937 191.50695742 C-412.54359862 191.50317633 -414.22251936 191.50617967 -415.90138073 191.51656907 C-418.18060079 191.52967328 -420.45842846 191.51821616 -422.73758793 191.50057125 C-424.00433765 191.50046391 -425.27108736 191.50035658 -426.57622343 191.50024599 C-431.17418177 190.82844099 -434.48655508 188.92620263 -437.375 185.25 C-438.32332276 181.83603806 -438.035814 178.53842315 -438 175 C-437.1354902 174.99940291 -436.27098041 174.99880582 -435.38027334 174.99819064 C-384.15807507 174.96230746 -332.93593559 174.90568506 -281.71379182 174.82207905 C-275.56537968 174.81206143 -269.41696728 174.80221732 -263.26855469 174.79248047 C-262.04450111 174.7905391 -260.82044754 174.78859772 -259.55930144 174.78659752 C-239.73187203 174.75556476 -219.90445421 174.7385933 -200.07700509 174.72680578 C-179.73671017 174.71440084 -159.39647609 174.68691427 -139.05621958 174.64538693 C-126.50218828 174.62023277 -113.94825784 174.60688413 -101.39420098 174.60857043 C-92.78888522 174.60860015 -84.18367231 174.59399875 -75.57839662 174.56783572 C-70.61138768 174.55316811 -65.64458967 174.54500542 -60.67756271 174.55419731 C-56.1298758 174.56247088 -51.5826131 174.55236611 -47.03498918 174.52766338 C-45.39018337 174.52196935 -43.7453375 174.52301129 -42.10054368 174.53148755 C-30.44758561 174.65952968 -30.44758561 174.65952968 -20 170 C-14.07458034 163.91864824 -13.71536549 158.21806701 -13.79223633 150.13256836 C-13.79403397 148.64881462 -13.79403397 148.64881462 -13.79586792 147.13508606 C-13.79901404 144.99125665 -13.80631743 142.84743021 -13.8173008 140.70362663 C-13.83215272 137.31210501 -13.83055619 133.92097745 -13.82365417 130.5294342 C-13.80481537 120.88822966 -13.79851612 111.24733388 -13.84545898 101.60620117 C-13.87299905 95.70630191 -13.86677654 89.80726533 -13.83844566 83.90738106 C-13.83417744 81.65826775 -13.84270628 79.40909293 -13.8641758 77.16007805 C-13.89294144 74.01841787 -13.87879986 70.8796732 -13.85473633 67.73803711 C-13.88317375 66.34072861 -13.88317375 66.34072861 -13.91218567 64.91519165 C-13.86804512 62.41909335 -13.77806296 60.37324472 -13 58 C-10.82367238 56.09348679 -8.67304161 55.23658225 -6 54 C-1.1148815 47.85233288 -0.26011192 41.00834865 -0.29296875 33.3984375 C-0.27784744 32.435961 -0.26272614 31.4734845 -0.24714661 30.48184204 C-0.20459477 27.44598363 -0.19546313 24.41112568 -0.1875 21.375 C-0.16433042 19.30075525 -0.13896001 17.22653385 -0.11132812 15.15234375 C-0.0487971 10.10147532 -0.01620815 5.05122083 0 0 Z " fill="#E5E6E7" transform="translate(475,287)"/>
<path d="M0 0 C1.8862207 0.00483398 1.8862207 0.00483398 3.81054688 0.00976562 C5.6909668 -0.0144043 5.6909668 -0.0144043 7.609375 -0.0390625 C8.80884766 -0.03970703 10.00832031 -0.04035156 11.24414062 -0.04101562 C12.34685303 -0.04399658 13.44956543 -0.04697754 14.58569336 -0.05004883 C17.37304688 0.32226562 17.37304688 0.32226562 19.02597046 1.41116333 C21.07344984 4.3159299 20.73206099 6.75056966 20.71362305 10.2722168 C20.71406113 10.97491196 20.71449921 11.67760712 20.71495056 12.40159607 C20.71286135 14.72309198 20.68952506 17.04386471 20.66601562 19.36523438 C20.66042012 20.97520045 20.65614981 22.58517164 20.65315247 24.19514465 C20.64170006 28.4318147 20.61222966 32.66817602 20.57904053 36.90472412 C20.54834806 41.22810693 20.5346489 45.55153964 20.51953125 49.875 C20.48736017 58.35756352 20.43615925 66.83987617 20.37304688 75.32226562 C23.34304688 75.81726563 23.34304688 75.81726563 26.37304688 76.32226562 C26.99804688 79.19726563 26.99804688 79.19726563 27.37304688 82.32226562 C24.58004333 85.11526917 22.87941239 84.57624406 18.96461487 84.58296204 C18.29940368 84.58678758 17.63419249 84.59061313 16.94882339 84.5945546 C14.70937392 84.60491199 12.47017953 84.60088737 10.23071289 84.59692383 C8.6293921 84.60126881 7.0280734 84.60645123 5.42675781 84.6124115 C1.06935246 84.62583602 -3.28796635 84.62637634 -7.64538836 84.6238482 C-11.278763 84.6227808 -14.91211995 84.62765594 -18.5454908 84.63245362 C-27.11505737 84.6435608 -35.6845801 84.64397945 -44.25415039 84.63793945 C-53.10421451 84.63189781 -61.95411972 84.64421273 -70.80415672 84.66550952 C-78.39400036 84.68310437 -85.98379333 84.68913023 -93.57365662 84.68587178 C-98.11046768 84.68405535 -102.6471654 84.68673075 -107.18395805 84.70058632 C-111.44965 84.71312568 -115.7150936 84.71125772 -119.98078156 84.69817543 C-121.54854222 84.69580155 -123.11632016 84.69857324 -124.68406105 84.70679855 C-126.82017807 84.71719981 -128.95545153 84.70921994 -131.09153748 84.69648743 C-132.88652003 84.69673904 -132.88652003 84.69673904 -134.71776485 84.69699574 C-137.62695312 84.32226562 -137.62695312 84.32226562 -139.5510416 82.93168926 C-140.62695312 81.32226562 -140.62695312 81.32226562 -140.37695312 79.19726562 C-139.62695312 77.32226562 -139.62695312 77.32226562 -138.62695312 76.32226562 C-136.62736949 76.2814578 -134.62650059 76.27972206 -132.62695312 76.32226562 C-132.63742676 75.54512207 -132.64790039 74.76797852 -132.65869141 73.96728516 C-132.70015595 70.46064462 -132.72624891 66.95405557 -132.75195312 63.44726562 C-132.76871094 62.22394531 -132.78546875 61.000625 -132.80273438 59.74023438 C-132.80917969 58.57363281 -132.815625 57.40703125 -132.82226562 56.20507812 C-132.83273926 55.12629395 -132.84321289 54.04750977 -132.85400391 52.93603516 C-132.62695312 50.32226562 -132.62695312 50.32226562 -130.62695312 48.32226562 C-126.16540504 47.86123489 -121.67204674 47.99827769 -117.18945312 48.00976562 C-115.3090332 47.9855957 -115.3090332 47.9855957 -113.390625 47.9609375 C-112.19115234 47.96029297 -110.99167969 47.95964844 -109.75585938 47.95898438 C-108.65314697 47.95600342 -107.55043457 47.95302246 -106.41430664 47.94995117 C-103.62695312 48.32226562 -103.62695312 48.32226562 -101.76220703 49.48486328 C-100.15346846 52.08859801 -100.28759667 54.03785824 -100.33398438 57.08398438 C-100.34848633 58.76137695 -100.34848633 58.76137695 -100.36328125 60.47265625 C-100.38841797 61.63990234 -100.41355469 62.80714844 -100.43945312 64.00976562 C-100.45975586 65.77803711 -100.45975586 65.77803711 -100.48046875 67.58203125 C-100.51585987 70.49589973 -100.56523503 73.40885508 -100.62695312 76.32226562 C-97.98695313 76.32226562 -95.34695312 76.32226562 -92.62695312 76.32226562 C-92.63361496 75.62513458 -92.64027679 74.92800354 -92.6471405 74.20974731 C-92.70719669 67.64701355 -92.75289933 61.08435622 -92.78238964 54.52140999 C-92.79806056 51.14712956 -92.81932406 47.77307576 -92.85327148 44.39892578 C-92.88952672 40.52174815 -92.90665041 36.64489391 -92.91992188 32.76757812 C-92.93540573 31.55296906 -92.95088959 30.33835999 -92.96684265 29.08694458 C-92.96706924 27.96593353 -92.96729584 26.84492249 -92.9675293 25.68994141 C-92.97419113 24.69954865 -92.98085297 23.70915588 -92.98771667 22.68875122 C-92.8686647 21.90781097 -92.74961273 21.12687073 -92.62695312 20.32226562 C-89.1733487 18.01986267 -87.82195928 18.06534785 -83.75195312 18.05664062 C-82.60210937 18.0540625 -81.45226562 18.05148438 -80.26757812 18.04882812 C-78.46546875 18.06042969 -78.46546875 18.06042969 -76.62695312 18.07226562 C-75.42554688 18.06453125 -74.22414063 18.05679688 -72.98632812 18.04882812 C-71.2615625 18.05269531 -71.2615625 18.05269531 -69.50195312 18.05664062 C-67.92027344 18.06002441 -67.92027344 18.06002441 -66.30664062 18.06347656 C-63.62695312 18.32226562 -63.62695312 18.32226562 -60.62695312 20.32226562 C-60.26618958 22.68875122 -60.26618958 22.68875122 -60.28637695 25.68994141 C-60.28660355 26.81095245 -60.28683014 27.9319635 -60.2870636 29.08694458 C-60.30254745 30.30155365 -60.31803131 31.51616272 -60.33398438 32.76757812 C-60.33822922 34.00772675 -60.34247406 35.24787537 -60.34684753 36.52560425 C-60.36082097 39.82362026 -60.38777952 43.12119912 -60.42095947 46.41906738 C-60.45164074 49.78388105 -60.46534866 53.14875867 -60.48046875 56.51367188 C-60.51360582 63.11670834 -60.56385615 69.71945121 -60.62695312 76.32226562 C-57.98695313 76.32226562 -55.34695312 76.32226562 -52.62695312 76.32226562 C-52.63742676 75.06043457 -52.64790039 73.79860352 -52.65869141 72.49853516 C-52.69482212 67.82831649 -52.71782829 63.15811023 -52.73681641 58.48779297 C-52.74688983 56.46433435 -52.76054908 54.44089035 -52.77783203 52.41748047 C-52.8020216 49.51330973 -52.81342261 46.60933102 -52.82226562 43.70507812 C-52.8325882 42.79670197 -52.84291077 41.88832581 -52.85354614 40.9524231 C-52.8536972 40.11170258 -52.85384827 39.27098206 -52.85400391 38.40478516 C-52.85844513 37.66310089 -52.86288635 36.92141663 -52.86746216 36.15725708 C-52.62695312 34.32226562 -52.62695312 34.32226562 -50.62695312 32.32226562 C-47.75366211 32.0793457 -47.75366211 32.0793457 -44.12304688 32.09179688 C-42.82560547 32.09373047 -41.52816406 32.09566406 -40.19140625 32.09765625 C-39.514729 32.10385986 -38.83805176 32.11006348 -38.14086914 32.11645508 C-36.06904842 32.1347251 -33.99767416 32.13696467 -31.92578125 32.13671875 C-21.7670357 32.18218305 -21.7670357 32.18218305 -20.62695312 33.32226562 C-20.53426314 34.67321545 -20.50947986 36.02893653 -20.51342773 37.38305664 C-20.51354103 38.67428185 -20.51354103 38.67428185 -20.51365662 39.99159241 C-20.5188179 40.92700363 -20.52397919 41.86241486 -20.52929688 42.82617188 C-20.53071182 43.77918686 -20.53212677 44.73220184 -20.53358459 45.71409607 C-20.53920161 48.77101728 -20.55175697 51.82786639 -20.56445312 54.88476562 C-20.56946593 56.95182186 -20.57402922 59.01887924 -20.578125 61.0859375 C-20.58917656 66.1647415 -20.60645258 71.24349132 -20.62695312 76.32226562 C-17.65695312 76.32226562 -14.68695313 76.32226562 -11.62695312 76.32226562 C-11.63139435 75.39962921 -11.63583557 74.4769928 -11.64041138 73.52639771 C-11.68043426 64.84450659 -11.71091006 56.16264633 -11.73057747 47.48068428 C-11.74102847 43.01686808 -11.75521156 38.55312791 -11.77783203 34.08935547 C-11.79951364 29.78405888 -11.81151183 25.47883557 -11.81670761 21.17348862 C-11.82041181 19.52838868 -11.82764489 17.88329289 -11.83841324 16.23822403 C-11.85286611 13.93948858 -11.8549337 11.6410585 -11.85400391 9.34228516 C-11.85844513 8.03212433 -11.86288635 6.7219635 -11.86746216 5.37210083 C-11.31893162 -1.58367838 -5.54645489 0.03281926 0 0 Z " fill="#3E3266" transform="translate(287.626953125,105.677734375)"/>
<path d="M0 0 C0.06943466 11.8130765 0.12277803 23.62610464 0.15543652 35.43934345 C0.17110899 40.92439786 0.19237618 46.40931291 0.22631836 51.89428711 C0.2588553 57.1851406 0.27684109 62.47585985 0.28463173 67.76680565 C0.29018543 69.78788556 0.30103011 71.80895792 0.31719017 73.82998085 C0.3388891 76.65545296 0.34197008 79.48036652 0.34057617 82.3059082 C0.351362 83.14603958 0.36214783 83.98617096 0.3732605 84.85176086 C0.34277736 90.54194588 0.34277736 90.54194588 -1.28408051 92.71591949 C-4.30841923 94.9791343 -8.06186189 94.38720769 -11.6940918 94.34057617 C-12.5821048 94.34101425 -13.4701178 94.34145233 -14.38504028 94.34190369 C-17.32332261 94.3398119 -20.26103597 94.3164624 -23.19921875 94.29296875 C-25.23517037 94.28737419 -27.27112603 94.28310343 -29.30708313 94.28010559 C-34.66821423 94.26864586 -40.02910187 94.23916887 -45.39013672 94.20599365 C-50.85966702 94.17531714 -56.32923661 94.16160542 -61.79882812 94.14648438 C-72.5326591 94.11430033 -83.26630932 94.06309027 -94 94 C-89.37759466 88.45300461 -84.45895769 83.31647441 -79.34838867 78.21899414 C-78.07664291 76.9446199 -78.07664291 76.9446199 -76.77920532 75.64450073 C-74.4735867 73.33525691 -72.1657611 71.02824915 -69.8567369 68.72241139 C-67.43605295 66.30427303 -65.01782529 63.88368021 -62.59919739 61.46348572 C-58.54522146 57.40769658 -54.48915465 53.35400746 -50.43188477 49.30151367 C-45.73675231 44.61184426 -41.04526282 39.91855355 -36.35560626 35.22340876 C-32.32421876 31.18749214 -28.29089707 27.15351624 -24.25593358 23.12117475 C-21.84771189 20.71451412 -19.44017599 18.30717791 -17.03438377 15.89808846 C-14.36020591 13.22138794 -11.68287289 10.54788511 -9.00463867 7.87524414 C-8.20414597 7.0727272 -7.40365326 6.27021027 -6.5789032 5.44337463 C-5.49180054 4.36050171 -5.49180054 4.36050171 -4.38273621 3.25575256 C-3.74988299 2.62327638 -3.11702978 1.99080019 -2.4649992 1.33915806 C-1 0 -1 0 0 0 Z " fill="#F6739C" transform="translate(129,48)"/>
<path d="M0 0 C2.50856867 39.09478966 -1.99958221 70.75726557 -17 107 C-27.30543189 105.17429391 -35.54617979 97.73598057 -41.8046875 89.67578125 C-50.72953571 76.86306998 -53.80538456 62.38375784 -52 47 C-49.27809721 32.82785807 -41.89896834 19.70311901 -30.29296875 10.9609375 C-21.08885615 4.91068167 -11.27912535 0 0 0 Z " fill="#0088ED" transform="translate(121,221)"/>
<path d="M0 0 C10.6 0 10.6 0 14 3 C16.74126383 7.54315468 17.37244718 10.90217189 17.36076355 16.17538452 C17.36332682 16.87471497 17.3658901 17.57404542 17.36853105 18.2945677 C17.37345165 20.6254907 17.35700528 22.9557583 17.34057617 25.28662109 C17.33972952 26.9623615 17.34020578 28.63810302 17.34190369 30.31384277 C17.34276359 34.85476282 17.32513857 39.39544461 17.30418181 43.93630934 C17.28541426 48.68487302 17.28366451 53.43344231 17.28010559 58.18203735 C17.27078536 67.17046265 17.24617185 76.15877835 17.21605712 85.1471554 C17.18251245 95.38166719 17.16602693 105.61618425 17.15097082 115.85073733 C17.1196223 136.90055436 17.06625713 157.95026641 17 179 C11.39 179 5.78 179 0 179 C0 119.93 0 60.86 0 0 Z " fill="#E1E2E4" transform="translate(344,50)"/>
<path d="M0 0 C17.49 0 34.98 0 53 0 C53 14.96144377 46.80283831 25.95646753 36.8125 36.6875 C24.63350181 48.33160975 10.07173888 52.55136304 -6.40625 52.23828125 C-9.66963965 52.02190433 -12.7892894 51.60944044 -16 51 C-14.65582949 44.46663906 -12.88405306 38.24663169 -10.7421875 31.93359375 C-10.46898682 31.11701294 -10.19578613 30.30043213 -9.91430664 29.45910645 C-8.90617311 26.45023496 -7.89013923 23.44401512 -6.875 20.4375 C-4.60625 13.693125 -2.3375 6.94875 0 0 Z " fill="#D2F8FD" transform="translate(127,281)"/>
<path d="M0 0 C3.7437925 1.66390778 5.82498424 3.56029812 8 7 C8.8562083 11.74385682 8.68406186 15.78389003 6.3125 20 C3.76462877 22.20356431 2.27454714 23.19955514 -1 24 C-1.62648438 23.90976563 -2.25296875 23.81953125 -2.8984375 23.7265625 C-7.24573489 23.14587657 -9.29696824 23.47604237 -12.8984375 26.16015625 C-14.99765418 28.05579607 -16.98981657 30.0461332 -18.98046875 32.0546875 C-21.68075035 34.77849527 -24.60294149 36.9260652 -27.75 39.125 C-31.07270645 41.60854448 -31.07270645 41.60854448 -32.51171875 45.31640625 C-32.47221015 47.6756101 -32.47221015 47.6756101 -32.16796875 49.95703125 C-31.91281004 53.06047319 -33.06893032 54.65512967 -35 57 C-38.80465901 60.38375314 -41.63533529 60.56781045 -46.58984375 60.421875 C-50.3091568 59.77084451 -51.83025161 57.98340404 -54 55 C-56.01679759 51.92678462 -56.20257027 49.64626491 -56 46 C-56.86367187 45.73574219 -57.72734375 45.47148438 -58.6171875 45.19921875 C-63.06775301 43.62147786 -67.05362254 41.3945333 -71.1953125 39.14453125 C-74.16075098 37.93440106 -75.11354136 37.78768737 -78 39 C-78.99 39.495 -78.99 39.495 -80 40 C-80.64710938 39.90460938 -81.29421875 39.80921875 -81.9609375 39.7109375 C-86.63916078 39.05992261 -89.14540711 39.38315924 -93.046875 42.19921875 C-95.67733081 44.5564942 -98.15968185 47.05786362 -100.61767578 49.59326172 C-102.52024096 51.52942925 -104.52410884 53.33345988 -106.5625 55.125 C-107.16191406 55.66382813 -107.76132813 56.20265625 -108.37890625 56.7578125 C-110 58 -110 58 -113 59 C-112.7525 60.175625 -112.505 61.35125 -112.25 62.5625 C-111.60898283 67.57489813 -113.08847136 69.95621023 -116 74 C-120.24582147 76.83054764 -124.01484837 76.77409187 -129 76 C-132.62259904 74.1162485 -134.68975631 71.93073106 -136 68 C-136.67195988 61.16840786 -136.67195988 61.16840786 -134.953125 58.1796875 C-133.17314908 56.01230505 -131.5252735 54.26263675 -129 53 C-128.26910156 53.08378906 -127.53820312 53.16757813 -126.78515625 53.25390625 C-122.06543936 53.78885264 -119.11458422 53.76213462 -115.109375 51.0234375 C-112.30711377 48.43252 -109.64578736 45.74985767 -107 43 C-105.5162116 41.64864891 -104.01808111 40.31270999 -102.5 39 C-101.8915625 38.46375 -101.283125 37.9275 -100.65625 37.375 C-99 36 -99 36 -96 34 C-95.82565537 31.75808935 -95.82565537 31.75808935 -96.125 29.25 C-96.2430751 25.53600131 -96.13121804 23.41518814 -93.75 20.5 C-90.35810798 17.4164618 -88.64332434 16.21434665 -84.125 15.625 C-79.37379096 16.19514508 -76.46178925 18.48780422 -73.1875 21.875 C-72 24 -72 24 -71.9375 26.85546875 C-70.87236557 30.42810715 -70.49920192 30.66141578 -67.39453125 32.37109375 C-65.87807652 33.08354886 -64.3499843 33.77164021 -62.8125 34.4375 C-62.05646484 34.80037109 -61.30042969 35.16324219 -60.52148438 35.53710938 C-55.86458984 37.64947351 -53.0909589 38.27092412 -48 37 C-46.45594222 37.18980112 -44.91396868 37.39759226 -43.375 37.625 C-38.23029992 37.70224775 -35.54817672 35.43386617 -32 32 C-30.48826359 30.4768018 -28.98679801 28.9439678 -27.48583984 27.41015625 C-25.29033045 25.32647858 -22.80567742 23.70716856 -20.3125 22 C-17.46809168 19.80574216 -16.1926354 18.7909383 -15.3359375 15.2734375 C-15.23854429 13.3717069 -15.19002301 11.46671552 -15.1953125 9.5625 C-14.87842203 5.40489705 -12.99107423 3.77221514 -10 1 C-6.80657621 -0.59671189 -3.47454369 -0.37418163 0 0 Z " fill="#3E3064" transform="translate(295,61)"/>
<path d="M0 0 C13.44783158 2.24130526 22.87761253 4.93913631 33 14 C33.68835938 14.59554687 34.37671875 15.19109375 35.0859375 15.8046875 C42.97831413 23.09228431 48.43489956 32.58870999 51 43 C51 45.97 51 48.94 51 52 C34.17 52 17.34 52 0 52 C0 34.84 0 17.68 0 0 Z " fill="#F9749D" transform="translate(129,221)"/>
<path d="M0 0 C0.9679895 -0.00850552 1.935979 -0.01701104 2.93330151 -0.0257743 C6.17392839 -0.04804324 9.41340691 -0.03460694 12.65406799 -0.02119446 C14.97854942 -0.02960743 17.30302403 -0.04013244 19.62748718 -0.0526123 C25.93950482 -0.07969255 32.2511277 -0.07495086 38.56317782 -0.06291175 C44.49823125 -0.05488472 50.43322882 -0.06630282 56.36827482 -0.07612679 C68.84076046 -0.09554993 81.31306781 -0.08356546 93.78553886 -0.06134085 C104.48126283 -0.04309295 115.17664155 -0.05399052 125.87232971 -0.08564758 C138.2991843 -0.12242657 150.7258233 -0.13942609 163.15273243 -0.12623531 C169.72859222 -0.11974407 176.30416149 -0.12177091 182.87998772 -0.14555931 C189.06324534 -0.1667881 195.24579199 -0.15886269 201.42900467 -0.12846565 C203.69815764 -0.1221303 205.96736564 -0.12601807 208.23647881 -0.14087677 C211.33490205 -0.15952135 214.4309905 -0.14118145 217.52929688 -0.11352539 C218.42696901 -0.12759184 219.32464115 -0.14165829 220.24951547 -0.156151 C225.90308105 -0.05448591 228.92474936 1.19205337 233.09865624 5.02610654 C234.32814026 6.64164734 234.32814026 6.64164734 234.76564026 10.01664734 C234.62126526 10.88289734 234.47689026 11.74914734 234.32814026 12.64164734 C233.53932716 12.15450445 232.75051407 11.66736156 231.93779755 11.16545677 C227.31771522 9.21509848 223.53259442 9.22416244 218.57362366 9.26069641 C217.1083304 9.25367645 217.1083304 9.25367645 215.61343527 9.24651468 C212.34306826 9.23455726 209.07311969 9.24402505 205.80274963 9.25346375 C203.45694738 9.24939839 201.11114705 9.24405671 198.76535034 9.23753357 C192.39562351 9.22385 186.02604235 9.22916301 179.65631294 9.23867083 C173.6680336 9.24549261 167.67976765 9.24028741 161.69148868 9.23588924 C149.108433 9.22733782 136.52544293 9.23716557 123.94239801 9.25329034 C113.14923367 9.26669331 102.35616613 9.26436515 91.56300354 9.25053406 C79.02449465 9.23447385 66.48604324 9.22816177 53.9475255 9.23737085 C47.3119829 9.24211218 40.67649425 9.24266596 34.04095459 9.23276138 C27.8028925 9.22410065 21.56501336 9.23009753 15.32697105 9.24744415 C13.03643281 9.25141374 10.7458792 9.25026692 8.45534706 9.24365616 C5.33090854 9.23546947 2.20705785 9.24572796 -0.91734314 9.26069641 C-1.82571002 9.25400425 -2.73407689 9.24731208 -3.66997004 9.24041712 C-8.77213832 9.28789162 -12.20734698 9.88452318 -16.67185974 12.64164734 C-16.50188351 8.30725348 -16.18063696 6.20191742 -13.22166348 2.94346905 C-9.098912 -0.25144603 -5.04485269 -0.05870313 0 0 Z " fill="#F6FBFE" transform="translate(231.67185974121094,278.3583526611328)"/>
<path d="M0 0 C0.8202919 -0.00700928 1.6405838 -0.01401855 2.48573303 -0.02124023 C5.18419736 -0.03877594 7.88160403 -0.02721356 10.58007812 -0.01367188 C12.46285197 -0.01636807 14.34562446 -0.02025155 16.22839355 -0.02526855 C20.16916191 -0.0311576 24.10956694 -0.0226198 28.05029297 -0.00390625 C33.09433667 0.01888295 38.13752896 0.00575668 43.18154144 -0.01819611 C47.06783429 -0.03267014 50.95392623 -0.02804073 54.84022522 -0.01768494 C56.69971315 -0.01502209 58.55921949 -0.01827183 60.41868591 -0.02760315 C63.02049879 -0.0377953 65.62094483 -0.02223125 68.22265625 0 C68.9864711 -0.00809692 69.75028595 -0.01619385 70.5372467 -0.02453613 C75.70818825 0.05706181 78.62030718 1.27065529 82.61132812 4.51757812 C86.3867121 8.80314912 87.74011973 11.07750552 87.70898438 16.74414062 C87.70415039 18.29101562 87.70415039 18.29101562 87.69921875 19.86914062 C87.68665039 21.48949219 87.68665039 21.48949219 87.67382812 23.14257812 C87.66931641 24.23054688 87.66480469 25.31851562 87.66015625 26.43945312 C87.64834602 29.13218475 87.63041018 31.82488821 87.61132812 34.51757812 C82.99132812 34.51757812 78.37132812 34.51757812 73.61132812 34.51757812 C73.52882813 32.49632812 73.44632812 30.47507812 73.36132812 28.39257812 C72.93666006 23.04059704 72.48604749 19.49701964 68.61132812 15.51757812 C62.79625815 11.49530131 56.59745441 12.06727678 49.80273438 12.08398438 C47.94260963 12.0761216 47.94260963 12.0761216 46.04490662 12.06809998 C42.75789808 12.06004837 39.47130877 12.06712817 36.18432617 12.07843018 C34.1769502 12.08007557 32.17014051 12.06809551 30.1628418 12.05102539 C26.29253778 12.02030302 22.423141 12.01694598 18.55273438 12.02148438 C17.36088028 12.0102504 16.16902618 11.99901642 14.9410553 11.98744202 C8.28890765 12.0430954 3.97577633 12.45052146 -1.38867188 16.51757812 C-5.14798599 21.65530741 -5.01261513 27.35024745 -5.38867188 33.51757812 C-9.67867188 33.51757812 -13.96867187 33.51757812 -18.38867188 33.51757812 C-18.49687957 29.80845871 -18.57609465 26.10251357 -18.63867188 22.39257812 C-18.6721875 21.34585937 -18.70570313 20.29914063 -18.74023438 19.22070312 C-18.81696978 13.15860591 -18.74443018 9.1473742 -14.38867188 4.51757812 C-9.6604809 0.68842332 -5.92328648 -0.06279061 0 0 Z " fill="#D2F8FD" transform="translate(306.388671875,236.482421875)"/>
<path d="M0 0 C4.95 0 9.9 0 15 0 C15 22.11 15 44.22 15 67 C10.05 67 5.1 67 0 67 C0 44.89 0 22.78 0 0 Z " fill="#0088EE" transform="translate(284,114)"/>
<path d="M0 0 C0.90858765 -0.00426498 1.81717529 -0.00852997 2.7532959 -0.01292419 C3.75284302 -0.01247101 4.75239014 -0.01201782 5.78222656 -0.0115509 C7.35792419 -0.01658882 7.35792419 -0.01658882 8.9654541 -0.02172852 C12.45126515 -0.0312578 15.93702828 -0.03318251 19.42285156 -0.03425598 C21.83658875 -0.0374668 24.25032573 -0.04083073 26.6640625 -0.04434204 C31.7281947 -0.050338 36.79230981 -0.05218142 41.85644531 -0.05158997 C48.36029475 -0.05148823 54.86403529 -0.06515034 61.36785889 -0.08236217 C66.35368355 -0.09345406 71.33948164 -0.09551005 76.32531738 -0.09498024 C78.72400285 -0.09616423 81.12268892 -0.10060926 83.5213623 -0.10831261 C86.86881248 -0.1180574 90.21602293 -0.1152565 93.56347656 -0.10920715 C94.56302368 -0.11482666 95.5625708 -0.12044617 96.59240723 -0.12623596 C97.9552887 -0.11994423 97.9552887 -0.11994423 99.34570312 -0.11352539 C100.13769104 -0.11407016 100.92967896 -0.11461493 101.7456665 -0.1151762 C103.67285156 0.13371277 103.67285156 0.13371277 105.67285156 2.13371277 C105.11729601 6.68926832 105.11729601 6.68926832 103.67285156 8.13371277 C102.25839164 8.23137673 100.8390921 8.26002953 99.42126465 8.26069641 C98.50419235 8.26351624 97.58712006 8.26633606 96.64225769 8.26924133 C95.62819351 8.2672171 94.61412933 8.26519287 93.56933594 8.2631073 C92.50765701 8.26485962 91.44597809 8.26661194 90.35212708 8.26841736 C86.82360221 8.27283825 83.29512699 8.26989705 79.76660156 8.26652527 C77.32661937 8.26719824 74.88663724 8.26816821 72.44665527 8.26942444 C67.32527022 8.27090173 62.20390257 8.26874584 57.08251953 8.26408386 C50.50122441 8.25838656 43.91997007 8.2616654 37.33867645 8.26765633 C32.29799082 8.27126108 27.25731494 8.27012375 22.21662903 8.26752853 C19.78920995 8.26685903 17.36179001 8.2676885 14.93437195 8.27000809 C11.54834634 8.27253321 8.16238777 8.26869599 4.77636719 8.2631073 C3.76230301 8.26513153 2.74823883 8.26715576 1.70344543 8.26924133 C0.32783699 8.2650116 0.32783699 8.2650116 -1.07556152 8.26069641 C-1.87714439 8.26031939 -2.67872726 8.25994236 -3.50460052 8.25955391 C-5.32714844 8.13371277 -5.32714844 8.13371277 -6.32714844 7.13371277 C-6.36795627 5.13412913 -6.369692 3.13326023 -6.32714844 1.13371277 C-3.98548846 -0.03711722 -2.6093999 0.00552148 0 0 Z " fill="#3D2F62" transform="translate(75.3271484375,412.8662872314453)"/>
<path d="M0 0 C0.89872833 -0.00563965 1.79745667 -0.0112793 2.72341919 -0.01708984 C3.71204453 -0.01304138 4.70066986 -0.00899292 5.71925354 -0.00482178 C6.75835876 -0.00832642 7.79746399 -0.01183105 8.86805725 -0.01544189 C12.31665144 -0.02427308 15.76504189 -0.01840468 19.21363831 -0.01165771 C21.60255981 -0.01300407 23.99148105 -0.01494435 26.38040161 -0.01745605 C31.39328107 -0.02040929 36.40608937 -0.01610363 41.41896057 -0.0067749 C47.85322205 0.00461353 54.28731659 -0.00193482 60.72157192 -0.01391983 C65.65683251 -0.02113828 70.59205337 -0.01885045 75.52731514 -0.01366425 C77.90005068 -0.01232739 80.2727898 -0.0139767 82.64552116 -0.01862335 C85.95925866 -0.0236876 89.27272389 -0.01597929 92.58644104 -0.00482178 C93.57304214 -0.00887024 94.55964325 -0.0129187 95.57614136 -0.01708984 C96.47768951 -0.0114502 97.37923767 -0.00581055 98.30810547 0 C99.48364314 0.00113108 99.48364314 0.00113108 100.68292904 0.002285 C102.71754456 0.25396729 102.71754456 0.25396729 105.71754456 2.25396729 C105.96754456 4.81646729 105.96754456 4.81646729 105.71754456 7.25396729 C104.14849474 8.8230171 102.60835194 8.37993474 100.42799377 8.38095093 C99.50250732 8.38377075 98.57702087 8.38659058 97.62348938 8.38949585 C96.088367 8.3864595 96.088367 8.3864595 94.52223206 8.38336182 C93.45079956 8.38511414 92.37936707 8.38686646 91.27546692 8.38867188 C87.71447658 8.39309282 84.15353544 8.39015154 80.59254456 8.38677979 C78.13014211 8.38745275 75.66773974 8.38842272 73.20533752 8.38967896 C68.03687408 8.39115626 62.86842788 8.38900033 57.69996643 8.38433838 C51.05813728 8.37864108 44.41634854 8.38191991 37.77452087 8.38791084 C32.68751213 8.39151558 27.60051305 8.39037827 22.51350403 8.38778305 C20.06375626 8.38711354 17.61400763 8.38794304 15.16426086 8.3902626 C11.74710246 8.3927877 8.33001049 8.38895054 4.91285706 8.38336182 C3.88944214 8.38538605 2.86602722 8.38741028 1.81159973 8.38949585 C0.42337006 8.38526611 0.42337006 8.38526611 -0.99290466 8.38095093 C-1.80186188 8.3805739 -2.61081909 8.38019688 -3.44429016 8.37980843 C-5.28245544 8.25396729 -5.28245544 8.25396729 -6.28245544 7.25396729 C-6.46995544 4.81646729 -6.46995544 4.81646729 -6.28245544 2.25396729 C-3.86400288 -0.16448528 -3.30509786 0.00318162 0 0 Z " fill="#453567" transform="translate(75.28245544433594,358.74603271484375)"/>
<path d="M0 0 C0.90858765 -0.00563965 1.81717529 -0.0112793 2.7532959 -0.01708984 C4.25261658 -0.01101715 4.25261658 -0.01101715 5.78222656 -0.00482178 C6.83269165 -0.00832642 7.88315674 -0.01183105 8.9654541 -0.01544189 C12.45131971 -0.0242725 15.93698375 -0.01840531 19.42285156 -0.01165771 C21.83658894 -0.01300398 24.25032605 -0.01494419 26.6640625 -0.01745605 C31.72821631 -0.02040912 36.79229967 -0.01610377 41.85644531 -0.0067749 C48.36030687 0.00461967 54.86400339 -0.00193881 61.36785889 -0.01391983 C66.35369112 -0.02113347 71.33948398 -0.01885278 76.32531738 -0.01366425 C78.72399922 -0.01232638 81.12268459 -0.01398023 83.5213623 -0.01862335 C86.86883061 -0.02368041 90.21602849 -0.01598978 93.56347656 -0.00482178 C94.56302368 -0.00887024 95.5625708 -0.0129187 96.59240723 -0.01708984 C97.9552887 -0.00863037 97.9552887 -0.00863037 99.34570312 0 C100.533685 0.00113108 100.533685 0.00113108 101.7456665 0.002285 C103.67285156 0.25396729 103.67285156 0.25396729 105.67285156 2.25396729 C105.11729601 6.80952284 105.11729601 6.80952284 103.67285156 8.25396729 C102.25839164 8.35163125 100.8390921 8.38028405 99.42126465 8.38095093 C98.50419235 8.38377075 97.58712006 8.38659058 96.64225769 8.38949585 C95.62819351 8.38747162 94.61412933 8.38544739 93.56933594 8.38336182 C92.50765701 8.38511414 91.44597809 8.38686646 90.35212708 8.38867188 C86.82360221 8.39309277 83.29512699 8.39015156 79.76660156 8.38677979 C77.32661937 8.38745276 74.88663724 8.38842272 72.44665527 8.38967896 C67.32527022 8.39115625 62.20390257 8.38900035 57.08251953 8.38433838 C50.50122441 8.37864108 43.91997007 8.38191992 37.33867645 8.38791084 C32.29799082 8.3915156 27.25731494 8.39037826 22.21662903 8.38778305 C19.78920995 8.38711354 17.36179001 8.38794302 14.93437195 8.3902626 C11.54834634 8.39278773 8.16238777 8.3889505 4.77636719 8.38336182 C3.76230301 8.38538605 2.74823883 8.38741028 1.70344543 8.38949585 C0.32783699 8.38526611 0.32783699 8.38526611 -1.07556152 8.38095093 C-1.87714439 8.3805739 -2.67872726 8.38019688 -3.50460052 8.37980843 C-5.32714844 8.25396729 -5.32714844 8.25396729 -6.32714844 7.25396729 C-6.51464844 4.81646729 -6.51464844 4.81646729 -6.32714844 2.25396729 C-3.90016491 -0.17301624 -3.3207438 0.00316168 0 0 Z " fill="#403164" transform="translate(75.3271484375,385.74603271484375)"/>
<path d="M0 0 C5.28 0 10.56 0 16 0 C16 16.5 16 33 16 50 C10.72 50 5.44 50 0 50 C0 33.5 0 17 0 0 Z " fill="#0187EC" transform="translate(203,132)"/>
<path d="M0 0 C5.28 0 10.56 0 16 0 C16 11.88 16 23.76 16 36 C10.72 36 5.44 36 0 36 C0 24.12 0 12.24 0 0 Z " fill="#6BC4F2" transform="translate(243,146)"/>
<path d="M0 0 C3.91739994 -0.10781835 7.831841 -0.18723773 11.75 -0.25 C13.41675781 -0.30027344 13.41675781 -0.30027344 15.1171875 -0.3515625 C16.18710937 -0.36445313 17.25703125 -0.37734375 18.359375 -0.390625 C19.34389648 -0.41157227 20.32841797 -0.43251953 21.34277344 -0.45410156 C24 0 24 0 26.35253906 1.33691406 C28 4 28 4 28 15 C18.76 15 9.52 15 0 15 C0 10.05 0 5.1 0 0 Z " fill="#D8D8DD" transform="translate(344,256)"/>
<path d="M0 0 C1.06992187 0.01289063 2.13984375 0.02578125 3.2421875 0.0390625 C4.35335938 0.07257813 5.46453125 0.10609375 6.609375 0.140625 C7.73601562 0.15867188 8.86265625 0.17671875 10.0234375 0.1953125 C12.80244679 0.24241435 15.58101869 0.31415648 18.359375 0.390625 C18.359375 5.340625 18.359375 10.290625 18.359375 15.390625 C9.119375 15.390625 -0.120625 15.390625 -9.640625 15.390625 C-9.640625 4.390625 -9.640625 4.390625 -7.99316406 1.72753906 C-5.10214481 0.08461446 -3.31751248 -0.07058537 0 0 Z " fill="#EDC7D9" transform="translate(318.640625,255.609375)"/>
<path d="M0 0 C1.87365234 -0.0299707 1.87365234 -0.0299707 3.78515625 -0.06054688 C4.98011719 -0.05990234 6.17507813 -0.05925781 7.40625 -0.05859375 C8.50259766 -0.06044678 9.59894531 -0.0622998 10.72851562 -0.06420898 C13.5 0.4375 13.5 0.4375 15.38867188 2.24194336 C17.07385391 5.57121446 16.41498399 7.90827604 15.5 11.4375 C10.62873683 14.68500878 5.22409973 13.76535434 -0.5 13.75 C-1.70140625 13.76611328 -2.9028125 13.78222656 -4.140625 13.79882812 C-5.29046875 13.79947266 -6.4403125 13.80011719 -7.625 13.80078125 C-8.67945313 13.80376221 -9.73390625 13.80674316 -10.8203125 13.80981445 C-13.5 13.4375 -13.5 13.4375 -15.34375 12.13354492 C-17.28631371 9.284096 -16.85623908 6.76239811 -16.5 3.4375 C-12.99282943 -1.75506088 -5.5483344 -0.03149209 0 0 Z " fill="#D1F8FC" transform="translate(271.5,336.5625)"/>
<path d="M0 0 C1.79727539 -0.00386719 1.79727539 -0.00386719 3.63085938 -0.0078125 C4.88833984 -0.00007813 6.14582031 0.00765625 7.44140625 0.015625 C9.32182617 0.00402344 9.32182617 0.00402344 11.24023438 -0.0078125 C12.43970703 -0.00523437 13.63917969 -0.00265625 14.875 0 C15.9777124 0.00225586 17.0804248 0.00451172 18.21655273 0.00683594 C21.00390625 0.265625 21.00390625 0.265625 24.00390625 2.265625 C24.67727059 9.33595054 24.67727059 9.33595054 22.84619141 11.86401367 C20.24781464 13.84085982 18.36947561 13.65366336 15.12890625 13.6640625 C13.9790625 13.66792969 12.82921875 13.67179687 11.64453125 13.67578125 C10.443125 13.66417969 9.24171875 13.65257812 8.00390625 13.640625 C6.8025 13.65222656 5.60109375 13.66382813 4.36328125 13.67578125 C2.63851563 13.66998047 2.63851563 13.66998047 0.87890625 13.6640625 C-0.17554688 13.66067871 -1.23 13.65729492 -2.31640625 13.65380859 C-4.99609375 13.265625 -4.99609375 13.265625 -6.84057617 11.86401367 C-9.02849042 8.83754534 -8.28299823 5.88062147 -7.99609375 2.265625 C-5.27957009 -0.45089866 -3.79522283 0.00777198 0 0 Z " fill="#D2F9FD" transform="translate(401.99609375,336.734375)"/>
<path d="M0 0 C2.375 -0.125 2.375 -0.125 5 0 C7.38846827 2.38846827 7.2519244 2.89220575 7.25878906 6.14257812 C7.26509338 6.99686401 7.27139771 7.8511499 7.27789307 8.73132324 C7.2738446 9.65529907 7.26979614 10.5792749 7.265625 11.53125 C7.26753845 12.47810669 7.2694519 13.42496338 7.27142334 14.4005127 C7.27278573 16.40454372 7.26908556 18.40858354 7.26074219 20.41259766 C7.25004347 23.48750553 7.26063572 26.56182914 7.2734375 29.63671875 C7.27211591 31.58073046 7.26955354 33.52474181 7.265625 35.46875 C7.26967346 36.39272583 7.27372192 37.31670166 7.27789307 38.26867676 C7.27158875 39.12296265 7.26528442 39.97724854 7.25878906 40.85742188 C7.25640228 41.987547 7.25640228 41.987547 7.25396729 43.14050293 C7 45 7 45 5 47 C2.4375 47.1875 2.4375 47.1875 0 47 C-1.54258608 45.45741392 -1.12718571 44.02636265 -1.12939453 41.87915039 C-1.13254669 41.00476822 -1.13569885 40.13038605 -1.13894653 39.22950745 C-1.13591019 37.8029911 -1.13591019 37.8029911 -1.1328125 36.34765625 C-1.13376923 35.37718857 -1.13472595 34.40672089 -1.13571167 33.40684509 C-1.13639365 31.34976131 -1.13453814 29.29267538 -1.13037109 27.2355957 C-1.12502884 24.07954078 -1.13031253 20.92362855 -1.13671875 17.76757812 C-1.13605786 15.77343718 -1.13477647 13.77929633 -1.1328125 11.78515625 C-1.13483673 10.83616959 -1.13686096 9.88718292 -1.13894653 8.90943909 C-1.13421829 7.59313759 -1.13421829 7.59313759 -1.12939453 6.25024414 C-1.12859894 5.4760463 -1.12780334 4.70184845 -1.12698364 3.90419006 C-1 2 -1 2 0 0 Z " fill="#3A2C5F" transform="translate(22,221)"/>
<path d="M0 0 C5.28 0 10.56 0 16 0 C16 6.6 16 13.2 16 20 C10.72 20 5.44 20 0 20 C0 13.4 0 6.8 0 0 Z " fill="#6AC1F0" transform="translate(163,162)"/>
<path d="M0 0 C6.60838656 1.32167731 10.4863689 4.48511751 14.40234375 9.9609375 C17.30666711 15.19078668 17 17.25649775 17 24 C11.72 24 6.44 24 1 24 C0.67 16.08 0.34 8.16 0 0 Z " fill="#E5E6E7" transform="translate(401,246)"/>
<path d="M0 0 C2.625 0.375 2.625 0.375 5 1 C5.625 3.375 5.625 3.375 6 6 C5.34 6.66 4.68 7.32 4 8 C1.375 7.625 1.375 7.625 -1 7 C-1.625 4.625 -1.625 4.625 -2 2 C-1.34 1.34 -0.68 0.68 0 0 Z " fill="#0481E3" transform="translate(209,85)"/>
<path d="M0 0 C2.5625 0.1875 2.5625 0.1875 4.5625 2.1875 C4.02678571 5.72321429 4.02678571 5.72321429 2.5625 7.1875 C0.0625 7.3125 0.0625 7.3125 -2.4375 7.1875 C-3.4375 6.1875 -3.4375 6.1875 -3.5625 3.6875 C-3.39599509 0.35740177 -3.31519894 0.2550153 0 0 Z " fill="#6AC0EF" transform="translate(170.4375,121.8125)"/>
<path d="M0 0 C2.5 0.125 2.5 0.125 3.5 1.125 C3.625 3.625 3.625 3.625 3.5 6.125 C2.5 7.125 2.5 7.125 0.0625 7.3125 C-2.5 7.125 -2.5 7.125 -4.5 5.125 C-3.7519084 0.18759542 -3.7519084 0.18759542 0 0 Z " fill="#6AC0EF" transform="translate(251.5,105.875)"/>
<path d="M0 0 C2.5 0.125 2.5 0.125 3.5 1.125 C3.6875 3.5625 3.6875 3.5625 3.5 6.125 C2.84 6.785 2.18 7.445 1.5 8.125 C-2.03571429 7.58928571 -2.03571429 7.58928571 -3.5 6.125 C-3.625 3.625 -3.625 3.625 -3.5 1.125 C-2.5 0.125 -2.5 0.125 0 0 Z " fill="#0383E7" transform="translate(291.5,68.875)"/>
</svg>
